<?xml version="1.0" standalone="no"?>
<!DOCTYPE svg PUBLIC "-//W3C//DTD SVG 20010904//EN"
 "http://www.w3.org/TR/2001/REC-SVG-20010904/DTD/svg10.dtd">
<svg version="1.0" xmlns="http://www.w3.org/2000/svg"
 width="482.000000pt" height="482.000000pt" viewBox="0 0 482.000000 482.000000"
 preserveAspectRatio="xMidYMid meet">
<metadata>
Created by potrace 1.14, written by Peter Selinger 2001-2017
</metadata>
<g transform="translate(0.000000,482.000000) scale(0.100000,-0.100000)"
fill="#000000" stroke="none">
<path d="M0 2410 l0 -2410 2410 0 2410 0 0 2410 0 2410 -2410 0 -2410 0 0
-2410z m1210 2185 l0 -75 225 0 225 0 0 -75 0 -75 150 0 150 0 0 75 0 75 75 0
75 0 0 75 0 75 1280 0 1280 0 0 -1280 0 -1280 -75 0 -75 0 0 -75 0 -75 -75 0
-75 0 0 -150 0 -150 75 0 75 0 0 -225 0 -225 75 0 75 0 0 -80 0 -80 -75 0 -75
0 0 80 0 80 -75 0 -75 0 0 -80 0 -80 -150 0 -150 0 0 -225 0 -225 75 0 75 0 0
-75 0 -75 75 0 75 0 0 -75 0 -75 75 0 75 0 0 -75 0 -75 -75 0 -75 0 0 75 0 75
-75 0 -75 0 0 75 0 75 -75 0 -75 0 0 75 0 75 -230 0 -230 0 0 -75 0 -75 -75 0
-75 0 0 -75 0 -75 75 0 75 0 0 -75 0 -75 -75 0 -75 0 0 75 0 75 -225 0 -225 0
0 75 0 75 -75 0 -75 0 0 -75 0 -75 -75 0 -75 0 0 -75 0 -75 -1280 0 -1280 0 0
1280 0 1280 75 0 75 0 0 75 0 75 75 0 75 0 0 75 0 75 -75 0 -75 0 0 225 0 225
-75 0 -75 0 0 75 0 75 75 0 75 0 0 -75 0 -75 75 0 75 0 0 75 0 75 75 0 75 0 0
230 0 230 -75 0 -75 0 0 75 0 75 -75 0 -75 0 0 75 0 75 -75 0 -75 0 0 75 0 75
75 0 75 0 0 -75 0 -75 75 0 75 0 0 -75 0 -75 75 0 75 0 0 -75 0 -75 225 0 225
0 0 150 0 150 80 0 80 0 0 75 0 75 -80 0 -80 0 0 75 0 75 80 0 80 0 0 -75z"/>
<path d="M3610 4145 l0 -75 -150 0 -150 0 0 -75 0 -75 -150 0 -150 0 0 -75 0
-75 -75 0 -75 0 0 -80 0 -80 -75 0 -75 0 0 -75 0 -75 -75 0 -75 0 0 -75 0 -75
-75 0 -75 0 0 -75 0 -75 -75 0 -75 0 0 -75 0 -75 -75 0 -75 0 0 -75 0 -75 -75
0 -75 0 0 -75 0 -75 -75 0 -75 0 0 -75 0 -75 -75 0 -75 0 0 -75 0 -75 -75 0
-75 0 0 -75 0 -75 -75 0 -75 0 0 -75 0 -75 -155 0 -155 0 0 75 0 75 -225 0
-225 0 0 -300 0 -300 75 0 75 0 0 -75 0 -75 75 0 75 0 0 -75 0 -75 -75 0 -75
0 0 -75 0 -75 -75 0 -75 0 0 -80 0 -80 -75 0 -75 0 0 -300 0 -300 300 0 300 0
0 75 0 75 80 0 80 0 0 75 0 75 75 0 75 0 0 75 0 75 75 0 75 0 0 -75 0 -75 75
0 75 0 0 -75 0 -75 300 0 300 0 0 225 0 225 -75 0 -75 0 0 155 0 155 75 0 75
0 0 75 0 75 75 0 75 0 0 75 0 75 75 0 75 0 0 75 0 75 75 0 75 0 0 75 0 75 75
0 75 0 0 75 0 75 75 0 75 0 0 75 0 75 75 0 75 0 0 75 0 75 75 0 75 0 0 75 0
75 75 0 75 0 0 75 0 75 75 0 75 0 0 75 0 75 80 0 80 0 0 75 0 75 75 0 75 0 0
150 0 150 75 0 75 0 0 150 0 150 75 0 75 0 0 305 0 305 -305 0 -305 0 0 -75z"/>
<path d="M1050 3995 l0 -75 80 0 80 0 0 -75 0 -75 75 0 75 0 0 -80 0 -80 75 0
75 0 0 80 0 80 -75 0 -75 0 0 75 0 75 -75 0 -75 0 0 75 0 75 -80 0 -80 0 0
-75z"/>
<path d="M600 3535 l0 -75 75 0 75 0 0 -75 0 -75 75 0 75 0 0 -75 0 -75 75 0
75 0 0 75 0 75 -75 0 -75 0 0 75 0 75 -75 0 -75 0 0 75 0 75 -75 0 -75 0 0
-75z"/>
<path d="M3610 1435 l0 -75 80 0 80 0 0 -75 0 -75 75 0 75 0 0 -80 0 -80 75 0
75 0 0 80 0 80 -75 0 -75 0 0 75 0 75 -75 0 -75 0 0 75 0 75 -80 0 -80 0 0
-75z"/>
<path d="M3160 975 l0 -75 75 0 75 0 0 -75 0 -75 75 0 75 0 0 -75 0 -75 75 0
75 0 0 75 0 75 -75 0 -75 0 0 75 0 75 -75 0 -75 0 0 75 0 75 -75 0 -75 0 0
-75z"/>
</g>
</svg>
